<svg width="176" height="185" viewBox="0 0 176 185" fill="none" xmlns="http://www.w3.org/2000/svg">
<path d="M119.137 129.083H174.917M128.434 184.083H19.3473C16.7106 184.084 14.1039 183.531 11.7003 182.463C9.29668 181.394 7.15106 179.833 5.40584 177.884C3.66063 175.936 2.35574 173.643 1.57777 171.159C0.799802 168.675 0.566551 166.056 0.8935 163.476L4.51918 134.84C5.36235 128.187 8.64144 122.067 13.7398 117.63C18.8383 113.194 25.4047 110.747 32.2045 110.75H35.4676L128.434 184.083ZM147.027 101.583V156.583V101.583Z" stroke="#20AEF3" stroke-width="1.5" stroke-linecap="round" stroke-linejoin="round"/>
<path d="M81.9481 92.4167C107.62 92.4167 128.431 71.8964 128.431 46.5833C128.431 21.2703 107.62 0.75 81.9481 0.75C56.2762 0.75 35.4651 21.2703 35.4651 46.5833C35.4651 71.8964 56.2762 92.4167 81.9481 92.4167Z" stroke="#20AEF3" stroke-width="1.5"/>
</svg>
